<mxfile host="app.diagrams.net" agent="Mozilla/5.0 (Windows NT 10.0; Win64; x64) AppleWebKit/537.36 (KHTML, like Gecko) Chrome/131.0.0.0 Safari/537.36 Edg/131.0.0.0" version="24.9.3">
  <diagram name="Page-1" id="WjLw_zWZAxJPWzrOTL81">
    <mxGraphModel dx="974" dy="669" grid="1" gridSize="10" guides="1" tooltips="1" connect="1" arrows="1" fold="1" page="1" pageScale="1" pageWidth="850" pageHeight="1100" math="0" shadow="0">
      <root>
        <mxCell id="0" />
        <mxCell id="1" parent="0" />
        <mxCell id="xPiuIHcnmdmzVMBd1IkR-14" style="edgeStyle=orthogonalEdgeStyle;rounded=0;orthogonalLoop=1;jettySize=auto;html=1;exitX=0.5;exitY=1;exitDx=0;exitDy=0;" edge="1" parent="1" source="xPiuIHcnmdmzVMBd1IkR-1">
          <mxGeometry relative="1" as="geometry">
            <mxPoint x="410" y="130" as="targetPoint" />
          </mxGeometry>
        </mxCell>
        <mxCell id="xPiuIHcnmdmzVMBd1IkR-1" value="Wake up" style="ellipse;whiteSpace=wrap;html=1;" vertex="1" parent="1">
          <mxGeometry x="340" y="30" width="140" height="50" as="geometry" />
        </mxCell>
        <mxCell id="xPiuIHcnmdmzVMBd1IkR-15" style="edgeStyle=orthogonalEdgeStyle;rounded=0;orthogonalLoop=1;jettySize=auto;html=1;exitX=0.5;exitY=1;exitDx=0;exitDy=0;" edge="1" parent="1" source="xPiuIHcnmdmzVMBd1IkR-2">
          <mxGeometry relative="1" as="geometry">
            <mxPoint x="415" y="260" as="targetPoint" />
          </mxGeometry>
        </mxCell>
        <mxCell id="xPiuIHcnmdmzVMBd1IkR-2" value="brushing and taking shower" style="rounded=0;whiteSpace=wrap;html=1;" vertex="1" parent="1">
          <mxGeometry x="350" y="140" width="130" height="70" as="geometry" />
        </mxCell>
        <mxCell id="xPiuIHcnmdmzVMBd1IkR-16" style="edgeStyle=orthogonalEdgeStyle;rounded=0;orthogonalLoop=1;jettySize=auto;html=1;exitX=0.5;exitY=1;exitDx=0;exitDy=0;entryX=0.5;entryY=0;entryDx=0;entryDy=0;" edge="1" parent="1" source="xPiuIHcnmdmzVMBd1IkR-5" target="xPiuIHcnmdmzVMBd1IkR-6">
          <mxGeometry relative="1" as="geometry" />
        </mxCell>
        <mxCell id="xPiuIHcnmdmzVMBd1IkR-5" value="performing morning&amp;nbsp;&lt;div&gt;prayer&lt;/div&gt;" style="shape=parallelogram;perimeter=parallelogramPerimeter;whiteSpace=wrap;html=1;fixedSize=1;" vertex="1" parent="1">
          <mxGeometry x="340" y="270" width="150" height="70" as="geometry" />
        </mxCell>
        <mxCell id="xPiuIHcnmdmzVMBd1IkR-18" style="edgeStyle=orthogonalEdgeStyle;rounded=0;orthogonalLoop=1;jettySize=auto;html=1;exitX=1;exitY=0.5;exitDx=0;exitDy=0;" edge="1" parent="1" source="xPiuIHcnmdmzVMBd1IkR-6">
          <mxGeometry relative="1" as="geometry">
            <mxPoint x="580" y="440" as="targetPoint" />
          </mxGeometry>
        </mxCell>
        <mxCell id="xPiuIHcnmdmzVMBd1IkR-19" style="edgeStyle=orthogonalEdgeStyle;rounded=0;orthogonalLoop=1;jettySize=auto;html=1;exitX=0;exitY=0.5;exitDx=0;exitDy=0;" edge="1" parent="1" source="xPiuIHcnmdmzVMBd1IkR-6">
          <mxGeometry relative="1" as="geometry">
            <mxPoint x="280" y="440" as="targetPoint" />
          </mxGeometry>
        </mxCell>
        <mxCell id="xPiuIHcnmdmzVMBd1IkR-6" value="what to do&amp;nbsp;" style="rhombus;whiteSpace=wrap;html=1;" vertex="1" parent="1">
          <mxGeometry x="350" y="400" width="130" height="80" as="geometry" />
        </mxCell>
        <mxCell id="xPiuIHcnmdmzVMBd1IkR-7" value="use mobile&amp;nbsp;" style="rounded=0;whiteSpace=wrap;html=1;" vertex="1" parent="1">
          <mxGeometry x="140" y="410" width="120" height="60" as="geometry" />
        </mxCell>
        <mxCell id="xPiuIHcnmdmzVMBd1IkR-8" value="study" style="rounded=0;whiteSpace=wrap;html=1;" vertex="1" parent="1">
          <mxGeometry x="590" y="410" width="120" height="60" as="geometry" />
        </mxCell>
        <mxCell id="xPiuIHcnmdmzVMBd1IkR-23" style="edgeStyle=orthogonalEdgeStyle;rounded=0;orthogonalLoop=1;jettySize=auto;html=1;exitX=1;exitY=0.5;exitDx=0;exitDy=0;entryX=0.5;entryY=1;entryDx=0;entryDy=0;" edge="1" parent="1" source="xPiuIHcnmdmzVMBd1IkR-9" target="xPiuIHcnmdmzVMBd1IkR-8">
          <mxGeometry relative="1" as="geometry" />
        </mxCell>
        <mxCell id="xPiuIHcnmdmzVMBd1IkR-9" value="evening prayer" style="rounded=0;whiteSpace=wrap;html=1;" vertex="1" parent="1">
          <mxGeometry x="355" y="570" width="135" height="80" as="geometry" />
        </mxCell>
        <mxCell id="xPiuIHcnmdmzVMBd1IkR-10" value="Lunch&amp;nbsp;" style="shape=parallelogram;perimeter=parallelogramPerimeter;whiteSpace=wrap;html=1;fixedSize=1;" vertex="1" parent="1">
          <mxGeometry x="355" y="750" width="150" height="80" as="geometry" />
        </mxCell>
        <mxCell id="xPiuIHcnmdmzVMBd1IkR-26" style="edgeStyle=orthogonalEdgeStyle;rounded=0;orthogonalLoop=1;jettySize=auto;html=1;exitX=0.5;exitY=1;exitDx=0;exitDy=0;" edge="1" parent="1" source="xPiuIHcnmdmzVMBd1IkR-11">
          <mxGeometry relative="1" as="geometry">
            <mxPoint x="430" y="1020" as="targetPoint" />
          </mxGeometry>
        </mxCell>
        <mxCell id="xPiuIHcnmdmzVMBd1IkR-11" value="walk or execise" style="rounded=0;whiteSpace=wrap;html=1;" vertex="1" parent="1">
          <mxGeometry x="365" y="870" width="130" height="70" as="geometry" />
        </mxCell>
        <mxCell id="xPiuIHcnmdmzVMBd1IkR-13" value="Sleep" style="ellipse;whiteSpace=wrap;html=1;" vertex="1" parent="1">
          <mxGeometry x="375" y="1030" width="120" height="60" as="geometry" />
        </mxCell>
        <mxCell id="xPiuIHcnmdmzVMBd1IkR-22" style="edgeStyle=orthogonalEdgeStyle;rounded=0;orthogonalLoop=1;jettySize=auto;html=1;exitX=0;exitY=0.5;exitDx=0;exitDy=0;entryX=0.5;entryY=1.167;entryDx=0;entryDy=0;entryPerimeter=0;" edge="1" parent="1" source="xPiuIHcnmdmzVMBd1IkR-9" target="xPiuIHcnmdmzVMBd1IkR-7">
          <mxGeometry relative="1" as="geometry" />
        </mxCell>
        <mxCell id="xPiuIHcnmdmzVMBd1IkR-24" style="edgeStyle=orthogonalEdgeStyle;rounded=0;orthogonalLoop=1;jettySize=auto;html=1;exitX=0.5;exitY=1;exitDx=0;exitDy=0;entryX=0.453;entryY=0.125;entryDx=0;entryDy=0;entryPerimeter=0;" edge="1" parent="1" source="xPiuIHcnmdmzVMBd1IkR-9" target="xPiuIHcnmdmzVMBd1IkR-10">
          <mxGeometry relative="1" as="geometry" />
        </mxCell>
        <mxCell id="xPiuIHcnmdmzVMBd1IkR-27" style="edgeStyle=orthogonalEdgeStyle;rounded=0;orthogonalLoop=1;jettySize=auto;html=1;exitX=0.5;exitY=1;exitDx=0;exitDy=0;entryX=0.5;entryY=-0.143;entryDx=0;entryDy=0;entryPerimeter=0;" edge="1" parent="1" source="xPiuIHcnmdmzVMBd1IkR-10" target="xPiuIHcnmdmzVMBd1IkR-11">
          <mxGeometry relative="1" as="geometry" />
        </mxCell>
      </root>
    </mxGraphModel>
  </diagram>
</mxfile>
